# xmcd
#
# Track frame offsets:
#	182
#	17787
#	26472
#	38392
#	49772
#	60390
#	77197
#	88827
#	102025
#	123062
#	140042
#	155685
#	173032
#
# Disc length: 2521 seconds
#
# Revision: 1
# Processed by: cddbd v1.4PL0 Copyright (c) Steve Scherf et al.
# Submitted via: audiograbber 1.80
#
DISCID=9a09d70d
DTITLE=Kodiaks - 2
DYEAR=1900
DGENRE=
TTITLE0=Money Making Money
TTITLE1=Times Like These
TTITLE2=Big Ben
TTITLE3=Hard Times Fall
TTITLE4=Kings Row
TTITLE5=Running Like Americans
TTITLE6=Land of the Sun
TTITLE7=All For Time
TTITLE8=Because of the Night
TTITLE9=Riding this Train
TTITLE10=Every Minute Every Day
TTITLE11=Your Name
TTITLE12=Slip Waltz
EXTD=
EXTT0=
EXTT1=
EXTT2=
EXTT3=
EXTT4=
EXTT5=
EXTT6=
EXTT7=
EXTT8=
EXTT9=
EXTT10=
EXTT11=
EXTT12=
PLAYORDER=
